<svg height="511pt" viewBox="0 0 511.99962 511" width="511pt" xmlns="http://www.w3.org/2000/svg"><path d="m437.238281 75.261719c-99.683593-99.683594-262.800781-99.683594-362.484375 0-84.609375 84.609375-97.390625 214.910156-38.371094 313.339843 2.933594 4.890626 3.707032 10.777344 2.039063 16.226563l-28.195313 92.132813c-.996093 3.257812 2.050782 6.308593 5.3125 5.308593l92.132813-28.195312c5.449219-1.667969 11.335937-.890625 16.222656 2.039062 98.429688 59.023438 228.734375 46.242188 313.34375-38.367187 99.683594-99.683594 99.683594-262.800782 0-362.484375zm0 0" fill="#00aaf0"/><path d="m69.328125 404.828125c1.667969-5.453125.894531-11.335937-2.035156-16.226563-59.019531-98.429687-46.242188-228.730468 38.367187-313.339843 45.933594-45.933594 105.332032-70.679688 165.789063-74.285157-70.75-4.214843-142.945313 20.535157-196.695313 74.285157-84.609375 84.609375-97.390625 214.910156-38.371094 313.339843 2.933594 4.890626 3.707032 10.777344 2.039063 16.226563l-28.195313 92.132813c-.996093 3.257812 2.050782 6.308593 5.3125 5.308593l26.449219-8.09375zm0 0" fill="#039add"/><path d="m306.515625 363.347656h-23.574219c-3.335937 0-6.039062-2.703125-6.039062-6.039062v-131.839844c0-11.542969-9.359375-20.902344-20.902344-20.902344h-50.519531c-11.332031 0-20.988281 8.816406-21.390625 20.140625-.421875 11.894531 9.09375 21.667969 20.890625 21.667969h24.078125c3.335937 0 6.039062 2.703125 6.039062 6.035156v104.898438c0 3.332031-2.703125 6.039062-6.039062 6.039062h-23.574219c-11.335937 0-20.988281 8.8125-21.390625 20.140625-.425781 11.890625 9.089844 21.664063 20.890625 21.664063h102.035156c11.800781 0 21.3125-9.773438 20.890625-21.664063-.40625-11.328125-10.058594-20.140625-21.394531-20.140625zm0 0" fill="#e4eaf8"/><path d="m290.734375 142.578125c0 19.183594-15.550781 34.734375-34.734375 34.734375s-34.734375-15.550781-34.734375-34.734375 15.550781-34.734375 34.734375-34.734375 34.734375 15.550781 34.734375 34.734375zm0 0" fill="#e4eaf8"/><g fill="#d8dce5"><path d="m215 383.488281c.402344-11.328125 10.054688-20.140625 21.386719-20.140625h23.578125c3.335937 0 6.039062-2.707031 6.039062-6.039062v-104.898438c0-3.332031-2.703125-6.035156-6.039062-6.035156h-24.078125c-11.796875 0-21.3125-9.773438-20.890625-21.667969.402344-11.324219 10.058594-20.140625 21.390625-20.140625h-30.90625c-11.332031 0-20.988281 8.816406-21.390625 20.140625-.421875 11.894531 9.09375 21.667969 20.890625 21.667969h24.078125c3.332031 0 6.039062 2.703125 6.039062 6.035156v104.898438c0 3.332031-2.707031 6.039062-6.039062 6.039062h-23.578125c-11.332031 0-20.988281 8.8125-21.390625 20.140625-.421875 11.890625 9.09375 21.664063 20.890625 21.664063h30.90625c-11.796875 0-21.3125-9.773438-20.886719-21.664063zm0 0"/><path d="m252.171875 142.578125c0-13.628906 7.855469-25.417969 19.28125-31.105469-4.65625-2.316406-9.902344-3.625-15.453125-3.625-19.183594 0-34.734375 15.550782-34.734375 34.730469 0 19.183594 15.550781 34.734375 34.734375 34.734375 5.550781 0 10.796875-1.308594 15.453125-3.628906-11.425781-5.6875-19.28125-17.476563-19.28125-31.105469zm0 0"/></g></svg>