<?xml version="1.0" standalone="no"?>
<!DOCTYPE svg PUBLIC "-//W3C//DTD SVG 20010904//EN"
 "http://www.w3.org/TR/2001/REC-SVG-20010904/DTD/svg10.dtd">
<svg version="1.0" xmlns="http://www.w3.org/2000/svg"
 width="700.000000pt" height="700.000000pt" viewBox="0 0 700.000000 700.000000"
 preserveAspectRatio="xMidYMid meet">
<metadata>
Created by potrace 1.11, written by Peter Selinger 2001-2013
</metadata>
<g transform="translate(0.000000,700.000000) scale(0.100000,-0.100000)"
fill="#000000" stroke="none">
<path d="M4917 6994 c-1 -1 -41 -4 -88 -8 -48 -3 -93 -8 -100 -10 -8 -3 -41
-7 -74 -11 -78 -7 -111 -12 -220 -36 -314 -68 -568 -181 -742 -330 -41 -36
-631 -607 -685 -664 -19 -20 -33 -20 -1301 -21 -1411 -1 -1338 2 -1456 -63
-116 -63 -216 -199 -241 -326 -5 -31 -9 -841 -9 -2100 -1 -2012 0 -2051 19
-2113 48 -155 161 -270 319 -325 54 -20 88 -20 1126 -22 l1070 -2 0 -239 0
-239 -430 -1 c-387 -1 -434 -3 -467 -18 -61 -29 -70 -62 -66 -241 l3 -155 33
-32 32 -33 1845 -2 c2031 -3 1890 -7 1927 57 23 41 25 312 3 354 -16 31 -49
58 -75 64 -8 2 -208 4 -445 4 l-430 1 0 233 c0 128 3 236 7 240 5 4 486 8
1070 9 1032 2 1065 2 1119 21 162 58 275 175 320 332 18 65 19 131 18 2122 0
1757 -3 2063 -15 2109 -50 187 -209 330 -399 358 -22 3 -386 6 -808 6 -692 1
-767 2 -761 16 39 96 107 337 119 421 3 25 8 52 10 60 2 8 7 38 10 65 14 123
16 141 21 165 2 14 7 100 10 192 l6 167 -137 -2 c-75 -1 -137 -2 -138 -3z"/>
</g>
</svg>
