<?xml version="1.0" encoding="iso-8859-1"?>
<!-- Generator: Adobe Illustrator 19.0.0, SVG Export Plug-In . SVG Version: 6.00 Build 0)  -->
<svg version="1.1" id="Capa_1" xmlns="http://www.w3.org/2000/svg" xmlns:xlink="http://www.w3.org/1999/xlink" x="0px" y="0px"
	 viewBox="0 0 512.001 512.001" style="enable-background:new 0 0 512.001 512.001;" xml:space="preserve">
<g>
	<rect x="185.38" y="418.958" style="fill:#95A5A5;" width="141.241" height="80.066"/>
	<path style="fill:#35495E;" d="M476.69,79.449H35.311c-9.366-0.003-18.349,3.717-24.971,10.339S-0.002,105.394,0,114.759v291.31
		c-0.003,9.366,3.717,18.348,10.339,24.971c6.623,6.622,15.605,10.342,24.971,10.339H476.69c9.366,0.003,18.348-3.717,24.971-10.339
		c6.623-6.623,10.342-15.605,10.339-24.971v-291.31c0.003-9.366-3.717-18.349-10.339-24.971
		C495.038,83.166,486.056,79.446,476.69,79.449z"/>
	<g>
		<path style="fill:#BDC3C7;" d="M512,370.759v35.31c0.003,9.366-3.717,18.348-10.339,24.971
			c-6.623,6.622-15.605,10.342-24.971,10.339H35.311c-9.366,0.003-18.348-3.717-24.971-10.339C3.717,424.418-0.002,415.435,0,406.07
			l0-35.31H512z"/>
		<path style="fill:#BDC3C7;" d="M123.586,476.69h264.828c4.875,0,8.828,3.952,8.828,8.828v17.655c0,4.875-3.952,8.828-8.828,8.828
			H123.586c-4.875,0-8.828-3.952-8.828-8.828v-17.655C114.759,480.643,118.711,476.69,123.586,476.69z"/>
	</g>
	<path style="fill:#E6E7E8;" d="M512,357.518c0.016,4.48-0.609,8.938-1.854,13.241H0V214.688l195.708-23.393l61.881,60.734
		c6.069-24.448,28.531-41.228,53.696-40.114c25.165,1.115,46.056,19.815,49.94,44.704c17.634-11.597,40.209-12.586,58.79-2.576
		c18.581,10.009,30.174,29.405,30.192,50.51c0.014,2.124-0.104,4.247-0.353,6.356c4.419-1.275,8.995-1.928,13.594-1.942
		c12.879-0.007,25.233,5.106,34.339,14.212C506.895,332.285,512.008,344.639,512,357.518z"/>
	<path style="fill:#CC4B4C;" d="M346.218,110.61l-79.89-78.036c36.723-35.928,113.17-32.486,113.17-32.486
		S382.941,74.682,346.218,110.61z"/>
	<polygon style="fill:#BDC3C7;" points="347.03,109.798 266.329,188.646 193.06,260.238 113.17,182.202 186.439,110.61 
		267.149,31.762 	"/>
	<path style="fill:#FFFFFF;" d="M259.657,156.16c-11.136,10.774-28.811,10.774-39.947,0c-5.288-5.113-8.273-12.154-8.273-19.509
		s2.986-14.396,8.273-19.509c11.136-10.774,28.811-10.774,39.947,0c5.288,5.113,8.273,12.154,8.273,19.509
		S264.944,151.046,259.657,156.16z"/>
	<g>
		<polygon style="fill:#95A5A5;" points="186.439,110.61 113.17,182.202 79.89,214.688 0,214.688 93.22,123.675 		"/>
		<polygon style="fill:#95A5A5;" points="159.78,292.724 106.549,305.7 105.313,304.552 67.796,267.918 66.56,266.682 
			79.89,214.688 		"/>
		<polygon style="fill:#95A5A5;" points="266.329,188.646 252.999,279.747 159.78,370.759 159.78,292.724 193.06,260.238 		"/>
	</g>
	<polygon style="fill:#7F8C8D;" points="193.06,260.238 159.78,292.724 79.89,214.688 113.17,182.202 	"/>
	<path style="fill:#F29C1F;" d="M105.313,304.552c-1.301,2.896-3.161,5.506-5.473,7.68c-11.034,10.77-59.851,19.509-59.851,19.509
		s8.916-47.757,19.95-58.527c2.252-2.256,4.92-4.055,7.857-5.297L105.313,304.552z"/>
	<g>
		<path style="fill:#95A5A5;" d="M323.876,296.432c-3.071-0.002-5.919-1.599-7.522-4.218s-1.73-5.883-0.335-8.618
			c5.257-10.279,13.047-19.049,22.634-25.483c4.049-2.699,9.519-1.614,12.229,2.428c2.711,4.041,1.64,9.514-2.393,12.236
			c-7.09,4.753-12.851,11.236-16.737,18.836C330.242,294.573,327.198,296.436,323.876,296.432z"/>
		<path style="fill:#95A5A5;" d="M406.681,346.397c-3.331-0.004-6.376-1.881-7.874-4.856c-1.499-2.974-1.196-6.539,0.784-9.218
			c7.485-10.117,18.069-17.513,30.142-21.065c4.683-1.362,9.582,1.33,10.944,6.013c1.362,4.683-1.33,9.582-6.013,10.944
			c-8.363,2.465-15.694,7.59-20.88,14.599C412.123,345.074,409.485,346.404,406.681,346.397z"/>
	</g>
</g>
</svg>
